<svg xmlns:xlink="http://www.w3.org/1999/xlink" xmlns="http://www.w3.org/2000/svg" viewBox="0 0 88 80" width="88"  height="80" ><path d="M51.001 20c.334 0 .646.167.832.445L55.535 26H63c2.206 0 4 1.794 4 4v26c0 2.206-1.794 4-4 4H25c-2.206 0-4-1.794-4-4V30c0-2.206 1.794-4 4-4h11.465l3.703-5.555c.186-.278.498-.445.832-.445h10.001zm-.535 2h-8.931l-3.703 5.555c-.186.278-.498.445-.832.445H25c-1.103 0-2 .897-2 2v26c0 1.103.897 2 2 2h38c1.103 0 2-.897 2-2V30c0-1.103-.897-2-2-2h-8c-.334 0-.646-.167-.832-.445L50.466 22zM46 32c6.065 0 11 4.935 11 11s-4.935 11-11 11-11-4.935-11-11 4.935-11 11-11zm0 2c-4.962 0-9 4.038-9 9s4.038 9 9 9 9-4.038 9-9-4.038-9-9-9zm-16-1c1.103 0 2 .897 2 2s-.897 2-2 2-2-.897-2-2 .897-2 2-2z" fill="#7D7D87"></path></svg>