<svg xmlns:xlink="http://www.w3.org/1999/xlink" width="88" height="80" viewBox="0 0 88 80" xmlns="http://www.w3.org/2000/svg"><g fill-rule="nonzero" fill="#7D7D87"><path d="M64 30a1 1 0 0 1 1 1v6a7 7 0 0 1-14 0v-6a1 1 0 0 1 2 0v6a5 5 0 0 0 10 0v-6a1 1 0 0 1 1-1z" fill="#7D7D87"></path><path d="M54 26a1 1 0 0 1 1 1v4a1 1 0 0 1-2 0v-4a1 1 0 0 1 1-1zM62 26a1 1 0 0 1 1 1v4a1 1 0 0 1-2 0v-4a1 1 0 0 1 1-1zM58 42a1 1 0 0 1 1 1v19H32v-6a1 1 0 0 1 2 0v4h23V43a1 1 0 0 1 .883-.993L58 42z" fill="#7D7D87"></path><path d="M66 30a1 1 0 0 1 0 2H50a1 1 0 0 1 0-2h16zM41 18H26a4 4 0 0 0-4 4v25a4 4 0 0 0 4 4h15a4 4 0 0 0 4-4V22a4 4 0 0 0-4-4zm0 2a2 2 0 0 1 2 2v25a2 2 0 0 1-2 2H26a2 2 0 0 1-2-2V22a2 2 0 0 1 2-2h15z" fill="#7D7D87"></path><path d="M44 24a1 1 0 0 1 0 2H23a1 1 0 1 1 0-2h21zM44 42a1 1 0 0 1 0 2H23a1 1 0 0 1 0-2h21z" fill="#7D7D87"></path></g></svg>