<svg xmlns:xlink="http://www.w3.org/1999/xlink" xmlns="http://www.w3.org/2000/svg" viewBox="0 0 12 13" width="12" height="12" fill="var(--success-1)" style="margin-bottom: 3px;"><path d="M8.122 3.79 6.677.825a.78.78 0 0 0-.675-.392.78.78 0 0 0-.675.392L3.88 3.792l-3.237.475a.752.752 0 0 0-.607.516.764.764 0 0 0 .19.778l2.342 2.31-.553 3.261a.763.763 0 0 0 .298.742c.231.17.538.192.79.058l2.898-1.54 2.895 1.538a.743.743 0 0 0 .79-.058.763.763 0 0 0 .299-.741l-.553-3.262 2.344-2.308a.764.764 0 0 0 .189-.777.752.752 0 0 0-.605-.516l-3.24-.477z" fill-rule="nonzero" fill="#0FA862"></path></svg>