<svg xmlns:xlink="http://www.w3.org/1999/xlink" width="88" height="80" viewBox="0 0 88 80" xmlns="http://www.w3.org/2000/svg"><g fill-rule="nonzero" fill="#7D7D87"><path d="M66 39a1 1 0 0 1 0 2H22a1 1 0 0 1 0-2h44z" fill="#7D7D87"></path><path d="M56 23H32a1 1 0 0 0-.848.47l-10 16A1 1 0 0 0 21 40v16a1 1 0 0 0 1 1h44a1 1 0 0 0 1-1V40a1 1 0 0 0-.152-.53l-10-16A1 1 0 0 0 56 23zm-.554 2L65 40.286V55H23V40.284L32.553 25h22.893z" fill="#7D7D87"></path><path d="M58 47a1 1 0 0 1 0 2H30a1 1 0 0 1 0-2h28z" fill="#7D7D87"></path></g></svg>