<svg xmlns:xlink="http://www.w3.org/1999/xlink" xmlns="http://www.w3.org/2000/svg" viewBox="0 0 88 80" width="88"  height="80" ><path d="M57 26c2.757 0 5 2.243 5 5v18c0 2.757-2.243 5-5 5H26c-2.757 0-5-2.243-5-5V31c0-2.757 2.243-5 5-5h31zm0 2H26c-1.654 0-3 1.346-3 3v18c0 1.654 1.346 3 3 3h31c1.654 0 3-1.346 3-3V31c0-1.654-1.346-3-3-3zm8 5c.552 0 1 .448 1 1v12c0 .552-.448 1-1 1s-1-.448-1-1V34c0-.552.448-1 1-1zm-23.485 2.143l10 6c.473.284.627.898.342 1.372-.284.473-.899.626-1.372.342L42 37.766V44c0 .36-.194.693-.507.87-.153.087-.323.13-.493.13-.178 0-.356-.047-.515-.143l-10-6c-.473-.284-.627-.898-.342-1.372.283-.474.898-.628 1.372-.342L40 42.234V36c0-.36.194-.693.507-.87.313-.178.699-.174 1.008.013z" transform="translate(-636.000000, -514.000000) translate(636.000000, 514.000000)" fill="#7D7D87"></path></svg>