<svg xmlns:xlink="http://www.w3.org/1999/xlink" xmlns="http://www.w3.org/2000/svg" viewBox="0 0 88 80" width="88"  height="80" ><path d="M44 26c-1.654 0-3 1.346-3 3s1.346 3 3 3 3-1.346 3-3-1.346-3-3-3zm0 8c-2.757 0-5-2.243-5-5s2.243-5 5-5 5 2.243 5 5-2.243 5-5 5zm0 12c-.551 0-1 .449-1 1 0 .551.449 1 1 1 .551 0 1-.449 1-1 0-.551-.449-1-1-1zm0 4c-1.654 0-3-1.346-3-3s1.346-3 3-3 3 1.346 3 3-1.346 3-3 3zm0-10c-3.86 0-7 3.14-7 7s3.14 7 7 7 7-3.14 7-7-3.14-7-7-7zm0 16c-4.962 0-9-4.038-9-9s4.038-9 9-9 9 4.038 9 9-4.038 9-9 9zM30 19c-1.654 0-3 1.346-3 3v36c0 1.654 1.346 3 3 3h28c1.654 0 3-1.346 3-3V22c0-1.654-1.346-3-3-3H30zm28 44H30c-2.757 0-5-2.243-5-5V22c0-2.757 2.243-5 5-5h28c2.757 0 5 2.243 5 5v36c0 2.757-2.243 5-5 5z" transform="translate(-748.000000, -784.000000) translate(748.000000, 784.000000)" fill="#7D7D87"></path></svg>