<svg xmlns:xlink="http://www.w3.org/1999/xlink" xmlns="http://www.w3.org/2000/svg" viewBox="0 0 88 80" width="88"  height="80" ><path d="M49.5 45c-.276 0-.5.224-.5.5s.224.5.5.5.5-.224.5-.5-.224-.5-.5-.5zm0 3c-1.378 0-2.5-1.122-2.5-2.5s1.122-2.5 2.5-2.5 2.5 1.122 2.5 2.5-1.122 2.5-2.5 2.5zM34 51h21V30H34v21zm22 2H33c-.552 0-1-.448-1-1V29c0-.552.448-1 1-1h23c.552 0 1 .448 1 1v23c0 .552-.448 1-1 1zm-28-4.5V53c0 2.206 1.794 4 4 4h25c2.206 0 4-1.794 4-4V28c0-2.206-1.794-4-4-4H32c-2.206 0-4 1.794-4 4v20.5zM51.5 63v-4h-14v4c0 .552-.448 1-1 1s-1-.448-1-1v-4H32c-3.309 0-6-2.691-6-6v-3.5h-4c-.552 0-1-.448-1-1s.448-1 1-1h4v-6h-4c-.552 0-1-.448-1-1s.448-1 1-1h4v-6h-4c-.552 0-1-.448-1-1s.448-1 1-1h4V28c0-3.309 2.691-6 6-6h3.5v-4c0-.552.448-1 1-1s1 .448 1 1v4h6v-4c0-.552.448-1 1-1s1 .448 1 1v4h6v-4c0-.552.448-1 1-1s1 .448 1 1v4H57c3.309 0 6 2.691 6 6v3.5h4c.552 0 1 .448 1 1s-.448 1-1 1h-4v6h4c.552 0 1 .448 1 1s-.448 1-1 1h-4v6h4c.552 0 1 .448 1 1s-.448 1-1 1h-4V53c0 3.309-2.691 6-6 6h-3.5v4c0 .552-.448 1-1 1s-1-.448-1-1z" transform="translate(-972.000000, -514.000000) translate(972.000000, 514.000000)" fill="#EEEEEE"></path></svg>