<svg xmlns:xlink="http://www.w3.org/1999/xlink" xmlns="http://www.w3.org/2000/svg" viewBox="0 0 88 80" width="88"  height="80" ><path d="M44 24c-.276 0-.5.224-.5.5s.224.5.5.5.5-.224.5-.5-.224-.5-.5-.5zm0 2c-.827 0-1.5-.673-1.5-1.5S43.173 23 44 23s1.5.673 1.5 1.5S44.827 26 44 26zM23 43h42V24c0-1.654-1.346-3-3-3H26c-1.654 0-3 1.346-3 3v19zm26 8h13c1.654 0 3-1.346 3-3v-3H23v3c0 1.654 1.346 3 3 3h23zm-9 8h8v-6h-8v6zm16 2H32c-.552 0-1-.448-1-1s.448-1 1-1h6v-6H26c-2.757 0-5-2.243-5-5V24c0-2.757 2.243-5 5-5h36c2.757 0 5 2.243 5 5v24c0 2.757-2.243 5-5 5H50v6h6c.552 0 1 .448 1 1s-.448 1-1 1z" transform="translate(-1084.000000, -649.000000) translate(1084.000000, 649.000000)" fill="#EEEEEE"></path></svg>