<svg xmlns:xlink="http://www.w3.org/1999/xlink" xmlns="http://www.w3.org/2000/svg" width="110" height="32" viewBox="0 0 79 33" fill="var(--text)"><g clip-path="url(#clip0_1874_16151)" fill="#E8E2D8"><path d="M42.7693 5.02394C44.1148 3.65532 45.4576 2.28456 46.8147 0.928223C47.5301 1.6112 48.2076 2.33262 48.9061 3.03268C49.1188 3.25696 49.353 3.45988 49.5488 3.70017C49.4993 3.79896 49.4199 3.87479 49.3414 3.94848C42.1019 11.2893 34.8665 18.6338 27.629 25.9762C26.3994 27.2439 25.126 28.4833 23.6779 29.4941C22.1377 30.5856 20.3953 31.3989 18.5545 31.7978C16.3373 32.2666 14.0137 32.2234 11.8171 31.66C8.60605 30.8457 5.6977 28.8832 3.70422 26.2047C2.54457 24.6572 1.68864 22.8769 1.19909 20.9978C0.595839 18.6685 0.54162 16.187 1.09276 13.8418C1.73707 11.0693 3.15835 8.49649 5.11708 6.46038C7.12424 4.36873 9.72886 2.84045 12.5598 2.26267C14.7207 1.81892 16.9842 1.95295 19.093 2.59695C21.7471 3.39206 24.1643 4.90433 26.1636 6.83257C28.106 8.78591 30.0373 10.7505 31.9671 12.7166C31.8087 12.9238 31.6128 13.0963 31.4333 13.2832C30.8706 13.8524 30.3116 14.4249 29.7478 14.993C29.5736 15.166 29.4109 15.3524 29.2204 15.5089C27.6964 13.9811 26.1899 12.4357 24.6728 10.9005C24.1043 10.3361 23.5605 9.74603 22.9667 9.2083C21.6923 8.05755 20.1916 7.15243 18.5581 6.6398C16.6973 6.05775 14.6796 5.95736 12.7841 6.43101C10.9722 6.8865 9.29774 7.85997 7.9649 9.18214C6.56889 10.562 5.5403 12.3199 5.01496 14.2241C4.39065 16.477 4.51067 18.9302 5.33027 21.1158C6.25199 23.594 8.11281 25.6964 10.4442 26.8888C12.2361 27.8249 14.2901 28.1971 16.2946 28.0534C17.3559 27.9835 18.4081 27.7528 19.3951 27.3496C20.8311 26.767 22.0961 25.8272 23.2384 24.7827C23.9864 24.1008 24.6844 23.365 25.3976 22.6462C31.1896 16.7734 36.9747 10.8936 42.7693 5.02394Z" fill="#E8E2D8"></path><path d="M44.6676 12.1901C46.8801 9.95157 49.0783 7.69865 51.3002 5.46924C52.222 6.39091 53.1389 7.31738 54.0443 8.25561C46.4937 15.9349 38.9241 23.5951 31.3697 31.2701C30.8238 31.8233 30.2827 32.3814 29.7305 32.9282C28.9614 32.1501 28.1961 31.3694 27.428 30.5914C27.2775 30.4414 27.1248 30.2935 26.9922 30.1274C32.8773 24.1413 38.7735 18.167 44.6676 12.1901Z" fill="#E8E2D8"></path><path d="M47.5915 25.7815C47.7036 25.6725 47.7994 25.5449 47.9321 25.4595C48.6633 26.1926 49.3944 26.9269 50.1124 27.6739C49.6324 28.1919 49.1307 28.6875 48.6343 29.1889C48.3937 29.419 48.1795 29.678 47.9247 29.8921C47.1799 29.1691 46.4524 28.4247 45.7344 27.6734C46.3429 27.0321 46.9762 26.4159 47.5915 25.7815Z" fill="#E8E2D8"></path><path d="M44.4067 29.0147C44.5988 28.8246 44.7778 28.6206 44.9836 28.4438C45.7111 29.1856 46.4502 29.915 47.1655 30.669C46.4481 31.4171 45.7185 32.153 44.9841 32.884C44.234 32.1647 43.5176 31.4112 42.7891 30.6701C43.3144 30.1046 43.8666 29.5658 44.4067 29.0147Z" fill="#E8E2D8"></path><path d="M50.9123 28.481C51.3834 28.9365 51.8361 29.4112 52.2972 29.8768C52.5536 30.1582 52.8573 30.3985 53.0826 30.7077C52.7915 31.0484 52.4583 31.3512 52.1519 31.6785C51.745 32.0972 51.3365 32.5137 50.9144 32.9163C50.459 32.5142 50.0347 32.0779 49.6042 31.6497C49.3041 31.333 48.9856 31.0334 48.7188 30.6869C49.4489 29.9505 50.1606 29.1949 50.9123 28.481Z" fill="#E8E2D8"></path><path d="M73.9758 2.26778C75.326 2.25706 76.6768 2.26349 78.027 2.2651C78.0605 3.60309 78.0336 4.94215 78.0407 6.28067C78.0407 9.9789 78.0407 13.6771 78.0407 17.3759C78.0298 17.9055 78.0732 18.4394 77.9869 18.9653C77.9292 19.3721 77.977 19.7854 77.9062 20.1907C77.8161 20.7938 77.7518 21.4022 77.6002 21.9945C77.3442 23.1111 77.0119 24.2175 76.5092 25.2537C75.7863 26.7986 74.7739 28.2267 73.4704 29.3588C71.8378 30.8088 69.7509 31.7298 67.5861 32.1039C67.3054 32.1795 67.0093 32.1474 66.7275 32.2133C66.3891 32.2969 66.0381 32.2771 65.6931 32.2787C64.9795 32.298 64.266 32.2782 63.5524 32.2739C63.2525 32.2749 62.9696 32.1538 62.6686 32.1645C62.3878 32.1704 62.1236 32.0712 61.8495 32.0359C60.8519 31.8884 59.8846 31.5899 58.9453 31.2371C57.1984 30.5585 55.5999 29.5437 54.1936 28.3307C53.4575 27.7099 52.7945 27.0147 52.1013 26.3499C51.2592 25.5287 50.422 24.7027 49.5755 23.8852C49.4563 23.7635 49.3332 23.6445 49.1948 23.5442C45.9791 26.6635 42.782 29.8011 39.5751 32.9284C38.8698 32.2664 38.1908 31.5781 37.4937 30.9075C37.2311 30.6496 36.9587 30.4009 36.7109 30.1297C37.6382 29.221 38.5797 28.3258 39.5004 27.4113C39.8838 27.0876 40.1975 26.6946 40.5809 26.3703C40.9248 26.0444 41.2384 25.689 41.5993 25.3802C42.0729 24.879 42.5958 24.4255 43.0704 23.9248C43.4412 23.6086 43.7593 23.2408 44.1158 22.9101C44.4591 22.6196 44.7409 22.2679 45.0804 21.9736C45.3995 21.6954 45.6671 21.3668 45.9857 21.0881C46.3263 20.7938 46.6086 20.4421 46.9519 20.1505C47.2563 19.8787 47.5161 19.5624 47.8248 19.2944C48.1456 19.0173 48.4126 18.686 48.7328 18.4083C49.0619 18.1221 49.3371 17.7833 49.6661 17.4976C49.9754 17.229 50.2341 16.9111 50.5417 16.641C50.873 16.3563 51.1493 16.0175 51.4767 15.7291C51.798 15.4525 52.0656 15.1229 52.3842 14.8436C52.6759 14.5916 52.9247 14.2973 53.2065 14.0347C53.6328 13.6648 53.9959 13.2311 54.4249 12.8634C54.8517 12.4045 55.3329 11.9993 55.7608 11.541C55.9921 11.3024 56.2569 11.0966 56.4799 10.8494C56.7293 10.5761 57.0199 10.3429 57.266 10.0668C57.3138 9.98908 57.4264 9.96174 57.4956 10.033C58.3306 10.8484 59.154 11.6755 60.0038 12.4764C60.0802 12.553 60.1527 12.6345 60.2257 12.7154C59.9923 13.0607 59.65 13.3126 59.3644 13.6128C57.0144 15.8958 54.6787 18.1923 52.3287 20.4748C52.2435 20.559 52.1441 20.6362 52.0996 20.7498C53.0944 21.7528 54.1217 22.7257 55.1253 23.7206C55.7163 24.2894 56.2778 24.8913 56.9276 25.399C58.3696 26.5633 60.0664 27.4178 61.8616 27.9292C62.4307 28.098 63.0234 28.1698 63.6007 28.3028C64.0468 28.2846 64.4786 28.4186 64.9241 28.4036C65.219 28.3961 65.5179 28.4213 65.809 28.3585C66.1183 28.2894 66.4429 28.3408 66.7467 28.2395C67.7207 28.0578 68.6666 27.7217 69.5153 27.2189C70.9606 26.3607 72.0762 25.0366 72.7892 23.5491C73.0112 23.0259 73.2545 22.5081 73.4017 21.9586C73.5457 21.4016 73.7072 20.8474 73.7813 20.2759C73.8791 19.8852 73.8461 19.4788 73.9252 19.0859C73.9988 18.5563 73.9472 18.0202 73.9648 17.4879C73.9653 12.4147 73.9785 7.34098 73.9758 2.26778Z" fill="#FFAA01"></path></g><defs><clipPath id="clip0_1874_16151"><rect width="77.3333" height="32" fill="white" transform="translate(0.710938 0.928223)"></rect></clipPath></defs></svg>