<svg xmlns:xlink="http://www.w3.org/1999/xlink" xmlns="http://www.w3.org/2000/svg" viewBox="0 0 88 80" width="88"  height="80" ><path d="M41 31c-.552 0-1-.448-1-1v-6c0-.552.448-1 1-1s1 .448 1 1v6c0 .552-.448 1-1 1zm7 0c-.552 0-1-.448-1-1v-6c0-.552.448-1 1-1s1 .448 1 1v6c0 .552-.448 1-1 1zm7 0c-.552 0-1-.448-1-1v-6c0-.552.448-1 1-1s1 .448 1 1v6c0 .552-.448 1-1 1zm1 26c-.552 0-1-.448-1-1V41H33v15c0 .552-.448 1-1 1s-1-.448-1-1V40c0-.552.448-1 1-1h24c.552 0 1 .448 1 1v16c0 .552-.448 1-1 1zM27 29.414V58c0 1.654 1.346 3 3 3h28c1.654 0 3-1.346 3-3V19H37.414L27 29.414zM58 63H30c-2.757 0-5-2.243-5-5V29c0-.265.105-.52.293-.707l11-11c.187-.188.442-.293.707-.293h25c.552 0 1 .448 1 1v40c0 2.757-2.243 5-5 5z" transform="translate(-748.000000, -649.000000) translate(748.000000, 649.000000)" fill="#EEEEEE"></path></svg>